<svg xmlns="http://www.w3.org/2000/svg" viewBox="0 0 96 96" role="img" aria-label="Ideas y organización">
  <defs>
    <linearGradient id="bulb" x1="0" x2="1" y1="0" y2="1">
      <stop offset="0" stop-color="#fde68a"/>
      <stop offset="1" stop-color="#f59e0b"/>
    </linearGradient>
  </defs>
  <path d="M48 16c-12 0-22 9.6-22 21.5 0 8.2 4.4 15.4 11 19.1v7.4h22v-7.4c6.6-3.7 11-10.9 11-19.1C70 25.6 60 16 48 16z" fill="url(#bulb)" stroke="#b45309" stroke-width="2.5"/>
  <rect x="35" y="64" width="26" height="8" rx="4" fill="#eab308"/>
  <rect x="37" y="74" width="22" height="7" rx="3.5" fill="#cbd5e1"/>
  <g fill="#fff7d6" stroke="#f59e0b" stroke-width="2" stroke-linecap="round">
    <line x1="48" y1="8" x2="48" y2="2"/>
    <line x1="31" y1="14" x2="26" y2="9"/>
    <line x1="65" y1="14" x2="70" y2="9"/>
    <line x1="24" y1="32" x2="17" y2="32"/>
    <line x1="72" y1="32" x2="79" y2="32"/>
  </g>
  <g fill="#ffffff" stroke="#cbd5e1" stroke-width="2">
    <rect x="12" y="64" width="18" height="12" rx="3"/>
    <rect x="30" y="64" width="16" height="12" rx="3"/>
    <rect x="50" y="64" width="16" height="12" rx="3"/>
    <rect x="68" y="64" width="16" height="12" rx="3"/>
  </g>
</svg>
