<svg xmlns="http://www.w3.org/2000/svg" viewBox="0 0 96 96" role="img" aria-label="Redactor académico">
  <defs>
    <linearGradient id="paper" x1="0" x2="1" y1="0" y2="1">
      <stop offset="0" stop-color="#ffffff"/>
      <stop offset="1" stop-color="#eef2ff"/>
    </linearGradient>
    <linearGradient id="pen" x1="0" x2="1" y1="0" y2="1">
      <stop offset="0" stop-color="#60a5fa"/>
      <stop offset="1" stop-color="#1d4ed8"/>
    </linearGradient>
  </defs>
  <rect x="16" y="14" width="56" height="64" rx="8" fill="url(#paper)" stroke="#6b86c9" stroke-width="2.5"/>
  <rect x="23" y="22" width="34" height="4" rx="2" fill="#cbd5e1"/>
  <rect x="23" y="32" width="38" height="4" rx="2" fill="#cbd5e1"/>
  <rect x="23" y="42" width="32" height="4" rx="2" fill="#cbd5e1"/>
  <rect x="23" y="52" width="36" height="4" rx="2" fill="#cbd5e1"/>
  <rect x="23" y="62" width="28" height="4" rx="2" fill="#cbd5e1"/>
  <rect x="14" y="74" width="68" height="6" rx="3" fill="#cbd5e1"/>
  <path d="M65 22l13 13-26 26-10 3 3-10z" fill="url(#pen)" stroke="#1e3a8a" stroke-width="2" stroke-linejoin="round"/>
  <path d="M71 20l5 5-4 4-5-5z" fill="#f59e0b"/>
</svg>
